<?xml version="1.0" encoding="iso-8859-1"?>
<!-- Generator: Adobe Illustrator 19.0.0, SVG Export Plug-In . SVG Version: 6.00 Build 0)  -->
<svg version="1.1" id="Layer_1" xmlns="http://www.w3.org/2000/svg" xmlns:xlink="http://www.w3.org/1999/xlink" x="0px" y="0px"
	 viewBox="0 0 512 512" style="enable-background:new 0 0 512 512;" xml:space="preserve">
<g transform="translate(1 1)">
	<g>
		<path style="fill:#E2E3E5;" d="M396.061,401.333h-104.49c-33.437,0-64.784-12.539-89.861-33.437
			c-4.18-4.18-5.224-10.449-1.045-14.629c4.18-4.18,10.449-5.224,14.629-1.045c20.898,18.808,48.065,28.212,76.278,28.212h104.49
			c6.269,0,10.449,4.18,10.449,10.449C406.51,397.153,402.331,401.333,396.061,401.333z"/>
		<path style="fill:#E2E3E5;" d="M124.388,182.949c-2.09,0-5.224-1.045-7.314-3.135c-20.898-18.808-48.065-29.257-76.278-29.257
			H19.898c-6.269,0-10.449-4.18-10.449-10.449c0-6.269,4.18-10.449,10.449-10.449h20.898c33.437,0,65.829,12.539,90.906,34.482
			c4.18,4.18,4.18,10.449,1.045,14.629C130.657,180.859,127.522,182.949,124.388,182.949z"/>
		<path style="fill:#E2E3E5;" d="M40.796,401.333c-6.269,0-10.449-4.18-10.449-10.449c0-6.269,4.18-10.449,10.449-10.449
			c63.739,0,114.939-51.2,114.939-114.939c0-75.233,60.604-135.837,135.837-135.837h104.49c6.269,0,10.449,4.18,10.449,10.449
			c0,6.269-4.18,10.449-10.449,10.449h-104.49c-63.739,0-114.939,51.2-114.939,114.939
			C176.633,340.729,116.029,401.333,40.796,401.333z"/>
	</g>
	<g>
		<polygon style="fill:#CCCCCC;" points="385.612,213.251 500.551,129.659 385.612,46.068 		"/>
		<polygon style="fill:#CCCCCC;" points="385.612,464.027 500.551,380.435 385.612,296.843 		"/>
	</g>
	<g>
		<polygon style="fill:#E2E3E5;" points="385.612,182.949 458.755,129.659 385.612,76.37 		"/>
		<polygon style="fill:#E2E3E5;" points="385.612,327.145 385.612,433.725 458.755,380.435 		"/>
	</g>
	<g>
		<path style="fill:#B6B6B6;" d="M30.347,390.884c-6.269,0-10.449-4.18-10.449-10.449c0-6.269,4.18-10.449,10.449-10.449
			c63.739,0,114.939-51.2,114.939-114.939c0-75.233,60.604-135.837,135.837-135.837h104.49c6.269,0,10.449,4.18,10.449,10.449
			c0,6.269-4.18,10.449-10.449,10.449h-104.49c-63.739,0-114.939,51.2-114.939,114.939
			C166.184,330.28,105.58,390.884,30.347,390.884z"/>
		<path style="fill:#B6B6B6;" d="M385.612,390.884h-104.49c-33.437,0-64.784-12.539-89.861-33.437
			c-4.18-4.18-5.224-10.449-1.045-14.629c4.18-4.18,10.449-5.224,14.629-1.045c20.898,18.808,48.065,28.212,76.278,28.212h104.49
			c6.269,0,10.449,4.18,10.449,10.449S391.882,390.884,385.612,390.884z"/>
		<path style="fill:#B6B6B6;" d="M113.939,172.5c-2.09,0-5.224-1.045-7.314-3.135c-20.898-18.808-48.065-29.257-76.278-29.257H9.449
			C3.18,140.108-1,135.929-1,129.659c0-6.269,4.18-10.449,10.449-10.449h20.898c33.437,0,65.829,12.539,90.906,34.482
			c4.18,4.18,4.18,10.449,1.045,14.629C120.208,170.41,117.073,172.5,113.939,172.5z"/>
		<path style="fill:#B6B6B6;" d="M30.347,390.884H9.449C3.18,390.884-1,386.704-1,380.435c0-6.269,4.18-10.449,10.449-10.449h20.898
			c6.269,0,10.449,4.18,10.449,10.449S36.616,390.884,30.347,390.884z"/>
		<path style="fill:#B6B6B6;" d="M385.612,223.7c-2.09,0-3.135,0-5.224-1.045c-3.135-2.09-5.224-5.224-5.224-9.404V46.068
			c0-4.18,2.09-7.314,5.224-9.404c3.135-2.09,7.314-1.045,10.449,1.045L505.776,121.3c3.135,2.09,5.224,5.224,5.224,8.359
			c0,3.135-2.09,6.269-4.18,8.359L391.882,221.61C389.792,222.655,387.702,223.7,385.612,223.7z M396.061,66.965v125.388
			l86.727-62.694L396.061,66.965z"/>
		<path style="fill:#B6B6B6;" d="M385.612,474.476c-2.09,0-3.135,0-5.224-1.045c-3.135-2.09-5.224-5.224-5.224-9.404V296.843
			c0-4.18,2.09-7.314,5.224-9.404c3.135-2.09,7.314-1.045,10.449,1.045l114.939,83.592c3.135,2.09,4.18,5.224,4.18,8.359
			c0,3.135-2.09,6.269-4.18,8.359l-114.939,83.592C389.792,473.431,387.702,474.476,385.612,474.476z M396.061,317.741v125.388
			l86.727-62.694L396.061,317.741z"/>
	</g>
</g>
<g>
</g>
<g>
</g>
<g>
</g>
<g>
</g>
<g>
</g>
<g>
</g>
<g>
</g>
<g>
</g>
<g>
</g>
<g>
</g>
<g>
</g>
<g>
</g>
<g>
</g>
<g>
</g>
<g>
</g>
</svg>
